<mxfile host="65bd71144e">
    <diagram id="pipeline" name="Azure DevOps Pipeline">
        <mxGraphModel dx="1469" dy="929" grid="1" gridSize="10" guides="1" tooltips="1" connect="1" arrows="1" fold="1" page="1" pageScale="1" pageWidth="827" pageHeight="1169" background="#808080" math="0" shadow="0">
            <root>
                <mxCell id="0"/>
                <mxCell id="1" parent="0"/>
                <mxCell id="2" value="Trigger:Commit to 'main' branch" style="shape=mxgraph.azure.devops;resIcon=mxgraph.azure.devops_repos;labelPosition=center;verticalLabelPosition=bottom;labelBackgroundColor=none;fillColor=#182E3E;strokeColor=#FFFFFF;fontColor=#FFFFFF;rounded=1;sketch=1;curveFitting=1;jiggle=2;" parent="1" vertex="1">
                    <mxGeometry x="60" width="80" height="80" as="geometry"/>
                </mxCell>
                <mxCell id="3" value="Agent Pool:\nubuntu-latest" style="shape=mxgraph.azure.compute_virtual_machines;labelPosition=center;verticalLabelPosition=bottom;labelBackgroundColor=none;fillColor=#182E3E;strokeColor=#FFFFFF;fontColor=#FFFFFF;verticalAlign=top;align=left;rounded=1;sketch=1;curveFitting=1;jiggle=2;" parent="1" vertex="1">
                    <mxGeometry x="50" y="140" width="80" height="80" as="geometry"/>
                </mxCell>
                <mxCell id="4" value="Variables:&lt;br&gt;&lt;span style=&quot;white-space: pre;&quot;&gt;&#9;&lt;/span&gt;location: westeurope&lt;br&gt;&lt;span style=&quot;white-space: pre;&quot;&gt;&#9;&lt;/span&gt;buildConfiguration: Release&lt;br&gt;&lt;span style=&quot;white-space: pre;&quot;&gt;&#9;&lt;/span&gt;webapprepo: https://github.com/nkathawa/Todo.git" style="shape=note;whiteSpace=wrap;html=1;size=14;labelBackgroundColor=none;fillColor=#182E3E;strokeColor=#FFFFFF;fontColor=#FFFFFF;align=left;rounded=1;sketch=1;curveFitting=1;jiggle=2;" parent="1" vertex="1">
                    <mxGeometry x="380" y="10" width="430" height="120" as="geometry"/>
                </mxCell>
                <mxCell id="5" value="Stage: VALIDATE_BUILD" style="shape=swimlane;startSize=20;swimlaneFillColor=#dae8fc;horizontal=0;labelBackgroundColor=none;fillColor=#182E3E;strokeColor=#FFFFFF;fontColor=#FFFFFF;rounded=1;sketch=1;curveFitting=1;jiggle=2;" parent="1" vertex="1">
                    <mxGeometry x="50" y="247" width="720" height="483" as="geometry"/>
                </mxCell>
                <mxCell id="6" value="Job: GetWebAppSample" style="swimlane;startSize=20;swimlaneFillColor=#f8cecc;horizontal=0;labelBackgroundColor=none;fillColor=#B3B3B3;strokeColor=#FFFFFF;fontColor=#FFFFFF;rounded=1;sketch=1;curveFitting=1;jiggle=2;" parent="5" vertex="1">
                    <mxGeometry x="20" width="700" height="480" as="geometry"/>
                </mxCell>
                <mxCell id="7" value="Step 1:\nDisable automatic checkout" style="shape=process;whiteSpace=wrap;labelBackgroundColor=none;fillColor=#182E3E;strokeColor=#FFFFFF;fontColor=#FFFFFF;rounded=1;sketch=1;curveFitting=1;jiggle=2;" parent="6" vertex="1">
                    <mxGeometry x="20" y="40" width="200" height="60" as="geometry"/>
                </mxCell>
                <mxCell id="8" value="Step 2:\nClone external GitHub repository" style="shape=mxgraph.azure.devops;resIcon=mxgraph.azure.devops_repos;labelPosition=center;verticalLabelPosition=bottom;labelBackgroundColor=none;fillColor=#182E3E;strokeColor=#FFFFFF;fontColor=#FFFFFF;align=right;rounded=1;sketch=1;curveFitting=1;jiggle=2;" parent="6" vertex="1">
                    <mxGeometry x="240" y="30" width="80" height="80" as="geometry"/>
                </mxCell>
                <mxCell id="9" value="Step 3:\nInstall .NET Core SDK" style="shape=mxgraph.azure.azure_functions;labelPosition=center;verticalLabelPosition=bottom;labelBackgroundColor=none;fillColor=#182E3E;strokeColor=#FFFFFF;fontColor=#FFFFFF;align=left;rounded=1;sketch=1;curveFitting=1;jiggle=2;" parent="6" vertex="1">
                    <mxGeometry x="350" y="30" width="80" height="80" as="geometry"/>
                </mxCell>
                <mxCell id="10" value="Step 4:\nRestore NuGet packages" style="shape=process;whiteSpace=wrap;labelBackgroundColor=none;fillColor=#182E3E;strokeColor=#FFFFFF;fontColor=#FFFFFF;rounded=1;sketch=1;curveFitting=1;jiggle=2;" parent="6" vertex="1">
                    <mxGeometry x="490" y="40" width="200" height="60" as="geometry"/>
                </mxCell>
                <mxCell id="11" value="Step 5:\nBuild the application" style="shape=process;whiteSpace=wrap;fillColor=#182E3E;labelBackgroundColor=none;strokeColor=#FFFFFF;fontColor=#FFFFFF;rounded=1;sketch=1;curveFitting=1;jiggle=2;" parent="6" vertex="1">
                    <mxGeometry x="480" y="210" width="200" height="60" as="geometry"/>
                </mxCell>
                <mxCell id="12" value="Step 6:\nRun unit tests" style="shape=process;whiteSpace=wrap;fillColor=#182E3E;labelBackgroundColor=none;strokeColor=#FFFFFF;fontColor=#FFFFFF;rounded=1;sketch=1;curveFitting=1;jiggle=2;" parent="6" vertex="1">
                    <mxGeometry x="230" y="210" width="200" height="60" as="geometry"/>
                </mxCell>
                <mxCell id="13" value="Step 7:\nPublish the application" style="shape=process;whiteSpace=wrap;fillColor=#182E3E;labelBackgroundColor=none;strokeColor=#FFFFFF;fontColor=#FFFFFF;rounded=1;sketch=1;curveFitting=1;jiggle=2;" parent="6" vertex="1">
                    <mxGeometry x="230" y="342" width="200" height="60" as="geometry"/>
                </mxCell>
                <mxCell id="14" value="Step 8:\nPublish build artifacts" style="shape=mxgraph.azure.devops;resIcon=mxgraph.azure.devops_artifacts;labelPosition=center;verticalLabelPosition=bottom;labelBackgroundColor=none;fillColor=#182E3E;strokeColor=#FFFFFF;fontColor=#FFFFFF;rounded=1;sketch=1;curveFitting=1;jiggle=2;" parent="6" vertex="1">
                    <mxGeometry x="566" y="332" width="80" height="80" as="geometry"/>
                </mxCell>
                <mxCell id="15" style="edgeStyle=orthogonalEdgeStyle;rounded=1;labelBackgroundColor=none;strokeColor=#23445D;fontColor=default;sketch=1;curveFitting=1;jiggle=2;" parent="6" source="7" target="8" edge="1">
                    <mxGeometry relative="1" as="geometry"/>
                </mxCell>
                <mxCell id="16" style="edgeStyle=orthogonalEdgeStyle;rounded=1;labelBackgroundColor=none;strokeColor=#23445D;fontColor=default;sketch=1;curveFitting=1;jiggle=2;" parent="6" source="8" target="9" edge="1">
                    <mxGeometry relative="1" as="geometry"/>
                </mxCell>
                <mxCell id="17" style="edgeStyle=orthogonalEdgeStyle;rounded=1;labelBackgroundColor=none;strokeColor=#23445D;fontColor=default;sketch=1;curveFitting=1;jiggle=2;" parent="6" source="9" target="10" edge="1">
                    <mxGeometry relative="1" as="geometry"/>
                </mxCell>
                <mxCell id="18" style="edgeStyle=orthogonalEdgeStyle;rounded=1;exitX=0.47;exitY=0.983;exitDx=0;exitDy=0;exitPerimeter=0;labelBackgroundColor=none;strokeColor=#23445D;fontColor=default;entryX=0.5;entryY=0;entryDx=0;entryDy=0;sketch=1;curveFitting=1;jiggle=2;" parent="6" source="10" target="11" edge="1">
                    <mxGeometry relative="1" as="geometry">
                        <mxPoint x="650" y="420" as="sourcePoint"/>
                        <mxPoint x="280" y="555" as="targetPoint"/>
                        <Array as="points">
                            <mxPoint x="584" y="210"/>
                        </Array>
                    </mxGeometry>
                </mxCell>
                <mxCell id="19" style="edgeStyle=orthogonalEdgeStyle;rounded=1;labelBackgroundColor=none;strokeColor=#23445D;fontColor=default;sketch=1;curveFitting=1;jiggle=2;" parent="6" source="11" target="12" edge="1">
                    <mxGeometry relative="1" as="geometry"/>
                </mxCell>
                <mxCell id="20" style="edgeStyle=orthogonalEdgeStyle;rounded=1;labelBackgroundColor=none;strokeColor=#23445D;fontColor=default;sketch=1;curveFitting=1;jiggle=2;" parent="6" source="12" target="13" edge="1">
                    <mxGeometry relative="1" as="geometry"/>
                </mxCell>
                <mxCell id="25" style="edgeStyle=orthogonalEdgeStyle;rounded=1;labelBackgroundColor=none;strokeColor=#23445D;fontColor=default;exitX=1;exitY=0.5;exitDx=0;exitDy=0;entryX=0;entryY=0.5;entryDx=0;entryDy=0;sketch=1;curveFitting=1;jiggle=2;" edge="1" parent="6" source="13" target="14">
                    <mxGeometry relative="1" as="geometry">
                        <mxPoint x="490" y="250" as="sourcePoint"/>
                        <mxPoint x="440" y="250" as="targetPoint"/>
                    </mxGeometry>
                </mxCell>
                <mxCell id="22" style="edgeStyle=elbowEdgeStyle;rounded=1;labelBackgroundColor=none;strokeColor=#23445D;fontColor=default;sketch=1;curveFitting=1;jiggle=2;" parent="1" source="2" target="3" edge="1">
                    <mxGeometry relative="1" as="geometry"/>
                </mxCell>
            </root>
        </mxGraphModel>
    </diagram>
</mxfile>